# xmcd
#
# Track frame offsets:
#	150
#	39448
#	55551
#	71339
#	89511
#	105503
#	122500
#	139554
#	188298
#	203874
#	222508
#	238745
#	268860
#	295868
#	311343
#
# Disc length: 4363 seconds
#
# Revision: 0
# Processed by: cddbd v1.5.1PL0 Copyright (c) Steve Scherf et al.
# Submitted via: audiograbber 1.82.01
#
DISCID=d011090f
DTITLE=Faithless - Forever Faithless - The Greatest Hits
DYEAR=2005
DGENRE=Dance
TTITLE0=insomnia (monster mix)
TTITLE1=mass destruction (single version)
TTITLE2=god is a DJ
TTITLE3=don't leave
TTITLE4=muhamed ali (radio edit)
TTITLE5=we come 1 (radio edit)
TTITLE6=revernece (radio edit)
TTITLE7=salva mea
TTITLE8=one step to far (radio edit)
TTITLE9=bring my familie back
TTITLE10=miss you less, see you more (single mix)
TTITLE11=trantula
TTITLE12=fatty boo
TTITLE13=wy go?
TTITLE14=iwant more (radio version)
EXTD=
EXTT0=
EXTT1=
EXTT2=
EXTT3=
EXTT4=
EXTT5=
EXTT6=
EXTT7=
EXTT8=
EXTT9=
EXTT10=
EXTT11=
EXTT12=
EXTT13=
EXTT14=
PLAYORDER=
